<?xml version="1.0" encoding="UTF-8"?>
<svg width="25px" height="25px" viewBox="0 0 25 25" version="1.1" xmlns="http://www.w3.org/2000/svg" xmlns:xlink="http://www.w3.org/1999/xlink">
    <!-- Generator: Sketch 51.2 (57519) - http://www.bohemiancoding.com/sketch -->
    <title>Group 10</title>
    <desc>Created with Sketch.</desc>
    <defs></defs>
    <g id="Desktop" stroke="none" stroke-width="1" fill="none" fill-rule="evenodd">
        <g id="Desktop---Avgiftshandbok" transform="translate(-231.000000, -433.000000)">
            <g id="Group-10" transform="translate(231.000000, 433.000000)">
                <circle id="Oval" fill="#D3E4F0" cx="12.5" cy="12.5" r="12.5"></circle>
                <path d="M16.5556744,12.3993819 C17.1481085,12.8851198 17.1481085,13.3432035 16.5556744,13.7736331 C15.9632402,14.2040628 14.1772613,15.4958157 11.1977375,17.6488919 C10.530258,18.0851511 9.9754682,18.1148644 9.5333682,17.7380318 C8.87021821,17.172783 9.01085003,16.5394067 9.89491092,15.9263903 C10.4842848,15.5177127 11.797857,14.5532992 13.8356275,13.0331497 L9.5333682,9.72035556 C8.8522567,9.25109127 8.82348003,8.76810868 9.4470382,8.2714078 C10.3823755,7.52635648 11.4951717,8.53987164 11.6162424,8.64784883 C11.6969561,8.71983362 13.3434335,9.97034465 16.5556744,12.3993819 Z" id="Path-52" stroke="#004B93" stroke-width="0.1" fill="#004B93"></path>
            </g>
        </g>
    </g>
</svg>